<?xml version="1.0" encoding="UTF-8" standalone="no"?>
<!-- Created with Inkscape (http://www.inkscape.org/) -->

<svg
   xmlns:dc="http://purl.org/dc/elements/1.1/"
   xmlns:cc="http://creativecommons.org/ns#"
   xmlns:rdf="http://www.w3.org/1999/02/22-rdf-syntax-ns#"
   xmlns:svg="http://www.w3.org/2000/svg"
   xmlns="http://www.w3.org/2000/svg"
   xmlns:sodipodi="http://sodipodi.sourceforge.net/DTD/sodipodi-0.dtd"
   xmlns:inkscape="http://www.inkscape.org/namespaces/inkscape"
   width="185.24356mm"
   height="185.22182mm"
   viewBox="0 0 185.24356 185.22182"
   version="1.1"
   id="svg8"
   inkscape:version="0.92.3 (2405546, 2018-03-11)"
   sodipodi:docname="drawing.svg">
  <defs
     id="defs2" />
  <sodipodi:namedview
     id="base"
     pagecolor="#ffffff"
     bordercolor="#666666"
     borderopacity="1.0"
     inkscape:pageopacity="0.0"
     inkscape:pageshadow="2"
     inkscape:zoom="0.35"
     inkscape:cx="775.57304"
     inkscape:cy="-112.96278"
     inkscape:document-units="mm"
     inkscape:current-layer="layer1"
     showgrid="false"
     inkscape:window-width="3200"
     inkscape:window-height="1685"
     inkscape:window-x="0"
     inkscape:window-y="0"
     inkscape:window-maximized="1" />
  <metadata
     id="metadata5">
    <rdf:RDF>
      <cc:Work
         rdf:about="">
        <dc:format>image/svg+xml</dc:format>
        <dc:type
           rdf:resource="http://purl.org/dc/dcmitype/StillImage" />
        <dc:title></dc:title>
      </cc:Work>
    </rdf:RDF>
  </metadata>
  <g
     inkscape:label="Layer 1"
     inkscape:groupmode="layer"
     id="layer1"
     transform="translate(-7.9318471,-4.0549694)">
    <path
       style="fill:#000000;stroke-width:0.26458332"
       d="m 56.097272,188.81376 c 0.003,-0.25466 -0.97259,-4.39208 -2.16816,-9.19427 -2.44844,-9.83445 -2.31466,-9.55724 -5.35148,-11.08947 l -1.52754,-0.77072 -3.08598,0.75876 c -1.6973,0.41731 -3.20505,0.7836 -3.35057,0.81396 -0.14553,0.0304 -1.03849,0.25211 -1.98438,0.49276 -0.94588,0.24066 -2.67229,0.664 -3.83646,0.94077 -1.16416,0.27676 -2.77151,0.68467 -3.57187,0.90645 -0.80037,0.22179 -2.22912,0.57781 -3.175,0.79116 -0.94589,0.21334 -5.75748,1.40478 -10.69243,2.64764 -4.93495,1.24285 -9.0723696,2.25973 -9.1942696,2.25973 -0.1219,0 -0.22067,-0.44648 -0.21949,-0.99218 l 0.002,-0.99219 19.0850596,-4.75206 c 19.88108,-4.95027 20.29245,-5.07905 21.43491,-6.71014 0.35057,-0.50051 2.96906,-3.43642 6.07827,-6.8151 0.8201,-0.89117 1.56974,-1.86813 1.66587,-2.17102 0.23226,-0.73179 -1.49753,-4.18975 -2.20877,-4.41549 -0.31914,-0.10129 -2.44558,0.51392 -5.49683,1.59031 -5.7941,2.04398 -7.37897,2.6017 -17.67634,6.22032 -4.22011,1.48299 -9.69698,3.40777 -12.17084,4.27727 -6.70009,2.35495 -10.4542196,3.64778 -10.5924096,3.64778 -0.0678,0 -0.12321,-0.46132 -0.12321,-1.02516 v -1.02517 l 2.4473996,-0.83493 c 1.34606,-0.45921 3.75708,-1.2968 5.35781,-1.86131 1.60073,-0.56451 7.91104,-2.77903 14.02291,-4.92115 6.11188,-2.14213 12.54125,-4.39825 14.2875,-5.0136 1.74625,-0.61536 4.46016,-1.56999 6.0309,-2.1214 2.99272,-1.05062 3.72011,-1.62905 3.05552,-2.42982 -0.3303,-0.39799 -1.79533,-0.38814 -4.45621,0.0299 -0.76429,0.12009 -5.44103,0.76967 -9.65729,1.34136 -1.60073,0.21704 -3.2676,0.44959 -3.70417,0.51677 -0.43656,0.0672 -2.2225,0.31548 -3.96875,0.55177 -1.74625,0.23629 -4.30609,0.59095 -5.68854,0.78813 -1.38245,0.19718 -3.94229,0.55607 -5.68854,0.79753 -1.74625,0.24146 -3.41312,0.47517 -3.70417,0.51934 -0.29104,0.0442 -1.98,0.26716 -3.75325,0.49552 -1.77324,0.22835 -3.5294096,0.49183 -3.9025996,0.58549 -0.64545,0.162 -0.67852,0.11757 -0.67852,-0.91168 0,-1.26031 -0.3218,-1.13612 4.4979196,-1.73584 1.81901,-0.22634 4.55744,-0.59041 6.08541,-0.80905 1.52797,-0.21864 4.08782,-0.5698 5.68854,-0.78036 1.60073,-0.21056 3.32714,-0.45 3.83646,-0.53209 0.99306,-0.16004 5.02376,-0.72283 9.525,-1.32992 1.52797,-0.20608 3.19485,-0.43427 3.70417,-0.5071 3.09503,-0.44253 7.3031,-1.02322 9.12812,-1.25963 1.16417,-0.1508 2.24455,-0.37903 2.40085,-0.50718 0.244,-0.20005 0.89307,-4.37565 0.86071,-5.53713 -0.006,-0.21828 0.0749,-1.64703 0.18004,-3.175 0.18597,-2.70347 0.17428,-2.79298 -0.43462,-3.33101 -0.54035,-0.47744 -3.57589,-2.16871 -10.5476,-5.87664 -0.94589,-0.50307 -1.83886,-1.00289 -1.98438,-1.1107 -0.90554,-0.67089 -2.3006,-0.81109 -5.33472,-0.53613 -1.72257,0.15611 -5.03694,0.45272 -7.36528,0.65914 -6.58997,0.58425 -9.40578,1.29194 -12.7,3.19185 -2.38275,1.37423 -4.0623,2.30126 -5.7546796,3.17631 l -1.78594,0.92341 v -1.13594 c 0,-0.98713 0.0953,-1.17685 0.7276,-1.4482 0.40019,-0.17173 1.32292,-0.65201 2.0505196,-1.06728 0.72761,-0.41526 2.22532,-1.25296 3.32826,-1.86154 1.10294,-0.60858 2.14403,-1.3748 2.31355,-1.7027 0.16951,-0.32791 0.48748,-1.78682 0.7066,-3.24203 0.21912,-1.45521 0.57676,-3.77693 0.79475,-5.15938 0.218,-1.38244 0.63293,-4.12088 0.92207,-6.08541 0.60717,-4.12536 1.29061,-8.56807 1.46527,-9.525 0.50105,-2.745147 0.39184,-3.808987 -0.86888,-8.463989 -1.11354,-4.11155 -1.32881,-4.66362 -1.93069,-4.95131 -0.37257,-0.17808 -2.15851,-0.51594 -3.96875,-0.75078 -1.81024,-0.23484 -3.7973596,-0.49278 -4.4158196,-0.5732 -1.10888,-0.14418 -1.12448,-0.16073 -1.12448,-1.19339 v -1.04718 l 0.99219,0.15811 c 1.2459796,0.19855 2.3262696,0.33938 6.2026396,0.80856 1.96254,0.23754 3.38962,0.28962 3.90284,0.14243 1.08617,-0.31151 4.62377,-2.27881 5.07666,-2.82319 0.66458,-0.79885 1.27454,-7.06569 0.77801,-7.993463 -0.25546,-0.477332 -4.51723,-2.601513 -5.44297,-2.712921 -0.68421,-0.08234 -2.92967,0.179004 -10.5171796,1.224081 l -0.99219,0.136663 V 72.3817 71.367912 l 2.05052,-0.314698 c 1.1277896,-0.173085 3.1220796,-0.443066 4.4317696,-0.599961 4.11747,-0.493252 4.31551,-0.55476 4.4841,-1.39268 0.1364,-0.677944 0.84592,-5.533506 1.10728,-7.577587 0.28359,-2.217962 0.28438,-2.732344 0.005,-3.307291 -0.26984,-0.555461 -3.34321,-4.16025 -7.58083,-8.891633 -4.8443796,-5.408829 -4.4979196,-4.900025 -4.4979196,-6.605632 0,-1.508347 0.006,-1.520867 0.7276,-1.42017 0.40019,0.05588 4.2399496,0.219012 8.5328196,0.362519 4.29286,0.143508 10.23355,0.40562 13.20153,0.58247 6.55609,0.390655 6.46132,0.420171 7.33268,-2.283804 0.91336,-2.834307 0.85133,-3.297322 -0.62432,-4.660148 -0.6912,-0.638327 -1.89957,-1.696416 -2.68524,-2.35126 -0.78568,-0.654844 -2.63115,-2.240444 -4.10104,-3.523554 -4.36758,-3.812566 -3.61982,-3.547203 -13.52046,-4.798072 -2.82964,-0.357503 -5.40073,-0.710551 -8.0036496,-1.099019 -0.78681,-0.117425 -0.8599,-0.209149 -0.8599,-1.079133 v -0.9508 l 1.52136,0.156065 c 1.3798796,0.141551 5.0175996,0.610501 12.7661396,1.645722 1.52797,0.20414 3.08946,0.375035 3.46999,0.379768 0.42918,0.0053 2.18709,-0.939088 4.6302,-2.487548 2.1661,-1.372886 5.29537,-3.356474 6.95394,-4.407975 4.88246,-3.095373 4.95938,-3.197961 5.1758,-6.9030807 0.0367,-0.627961 0.15977,-2.183545 0.27352,-3.456852 l 0.20682,-2.3151039 h 1.04099 1.04099 l -0.14093,1.3890619 c -0.81796,8.0620437 -0.81637,7.9801477 -0.20531,10.5775547 1.546,6.571598 2.71851,10.669662 3.18671,11.137853 0.82317,0.823181 3.54499,0.912638 5.33312,0.175284 0.79509,-0.327863 1.71226,-0.883086 2.03815,-1.233828 l 0.59253,-0.637714 -0.14572,-10.704106 -0.14572,-10.7041056 h 1.07455 1.07454 V 14.527799 c 0,9.231877 0.0484,10.477933 0.41275,10.617732 0.41026,0.157433 1.68562,-0.162411 9.2043,-2.308324 3.41128,-0.973618 4.04559,-1.241803 4.81785,-2.036972 1.71062,-1.761365 1.70939,-1.800683 -0.43284,-13.8213637 -0.1167,-0.654844 -0.21928,-1.577578 -0.22795,-2.050521 -0.0148,-0.8072449 0.0402,-0.8598959 0.89828,-0.8598959 0.8514,0 0.92501,0.068 1.07405,0.9921869 0.088,0.545704 0.32239,1.885157 0.52086,2.976563 0.19847,1.091406 0.4981,2.8374257 0.66584,3.8800437 0.16774,1.042618 0.3462,2.11418 0.39658,2.38125 0.0504,0.267069 0.17628,1.05527 0.27979,1.751556 0.1035,0.696287 0.42372,1.565402 0.71158,1.931367 0.71826,0.913114 8.14597,4.608391 9.25841,4.606049 0.70287,-0.0015 1.2864,-0.382361 3.14153,-2.050521 1.25308,-1.126787 4.81531,-4.310891 7.91607,-7.075787 3.10076,-2.764896 6.733898,-6.0093487 8.073648,-7.2098957 2.3029,-2.0636359 2.50225,-2.1828119 3.65114,-2.1828119 0.92114,0 1.18153,0.08785 1.07595,0.363014 -0.0766,0.199658 -1.40396,1.4795799 -2.94966,2.8442709 -3.10954,2.7454087 -4.6771,4.1454627 -7.073578,6.3177147 -0.88299,0.800364 -2.55102,2.288646 -3.70675,3.307291 -2.06093,1.81648 -4.45159,3.966005 -6.68546,6.011126 -0.61846,0.566207 -1.12448,1.268456 -1.12448,1.560553 0,0.784699 3.54054,4.321686 4.10803,4.103916 0.48981,-0.187957 8.30099,-5.892006 23.500708,-17.161199 2.01517,-1.4940627 3.92037,-2.8950717 4.23377,-3.1133537 2.18109,-1.519101 4.72765,-3.546562 4.84777,-3.8595739 0.0965,-0.251491 0.56693,-0.373759 1.43803,-0.373759 1.2822,0 1.2947,0.0082 1.30433,0.8598959 0.005,0.472943 0.1701,1.633802 0.3661,2.579687 0.19601,0.945886 0.62371,3.0689127 0.95045,4.7178387 0.39966,2.016989 0.75679,3.149657 1.09136,3.461355 0.30877,0.287662 3.22981,1.13362 7.70494,2.231419 3.9642,0.972462 7.62436,1.88465 8.13368,2.027086 0.50932,0.142436 3.64968,0.925111 6.97858,1.739277 5.03507,1.231456 6.10938,1.420767 6.39071,1.126142 0.34276,-0.358961 0.34835,-0.204831 -0.57659,-15.8984297 L 157.8811,4.0684544 h 0.9473 c 0.91516,0 0.95226,0.03815 1.09343,1.1244789 0.0804,0.618464 0.20237,2.136511 0.27108,3.373438 0.0687,1.236927 0.26064,4.6897387 0.4265,7.6729157 0.20638,3.711826 0.40955,5.537564 0.64365,5.783855 0.28637,0.301281 1.11145,0.0292 5.06597,-1.670559 2.59814,-1.116751 5.2124,-2.315265 5.80947,-2.663364 1.56366,-0.911622 2.44142,-2.669407 5.71161,-11.4379527 l 0.81407,-2.1828119 h 1.05387 c 1.26995,0 1.39129,-0.592858 -1.24509,6.0833886 -1.38788,3.514599 -1.9931,5.374789 -1.90006,5.839998 0.1385,0.692471 0.61744,1.605723 6.65142,12.682863 1.86281,3.419739 4.33434,7.975433 5.49229,10.123765 2.06971,3.839905 2.95691,4.957484 3.93553,4.957484 0.38524,0 0.49348,0.198165 0.49348,0.903468 v 0.903467 l -2.05052,0.164616 c -2.95415,0.237157 -3.79484,0.565118 -6.78507,2.64691 -1.47243,1.025107 -3.37555,2.340081 -4.22915,2.922164 -3.30271,2.25217 -3.40311,2.390085 -3.77316,5.18296 -0.65674,4.956707 -0.91387,7.307498 -1.1261,10.295165 -0.18328,2.580121 -0.15153,3.157696 0.20883,3.799043 0.33396,0.594384 2.20959,1.684224 8.75934,5.089665 4.5839,2.38333 8.4832,4.33493 8.6651,4.33689 0.21479,0.002 0.33073,0.41867 0.33073,1.18764 0,1.12169 -0.0314,1.17161 -0.59531,0.94734 -0.32742,-0.1302 -4.52438,-2.26834 -9.32656,-4.75143 -4.80219,-2.483077 -8.99292,-4.516723 -9.31274,-4.51921 -0.31981,-0.0024 -1.60201,0.364749 -2.84933,0.816084 -2.11898,0.766733 -3.03574,1.473116 -2.6732,2.059726 0.076,0.12295 0.55594,2.08851 1.06655,4.3679 0.98199,4.38363 1.71184,6.43664 2.5617,7.20574 0.49634,0.44918 0.65301,0.44466 3.74584,-0.10824 1.77531,-0.31737 4.12081,-0.75935 5.21222,-0.98219 1.0914,-0.22284 2.2225,-0.45189 2.51354,-0.50902 3.50382,-0.68771 8.83151,-1.78875 9.19427,-1.90012 0.39414,-0.121 0.46302,0.0376 0.46302,1.06631 0,1.11168 -0.0528,1.20845 -0.65951,1.20845 -0.36274,0 -2.4761,0.35966 -4.69636,0.79923 -2.22026,0.43958 -4.27496,0.84556 -4.566,0.90219 -5.31533,1.03418 -10.02879,2.06281 -10.55869,2.30425 -0.58784,0.26783 -3.15079,3.32935 -7.36013,8.791892 -0.68754,0.89223 -1.25309,1.901977 -1.25677,2.243887 -0.004,0.40651 0.51981,1.15686 1.51465,2.16813 l 1.52135,1.54648 2.38125,0.27852 c 1.30969,0.15319 3.8759,0.27885 5.70269,0.27926 l 3.32144,8e-4 4.74835,-2.0815 c 2.6116,-1.14487 5.46273,-2.40636 6.33586,-2.80337 0.87312,-0.397 2.04068,-0.886157 2.59458,-1.087017 l 1.00708,-0.3652 -0.081,1.063457 -0.081,1.06345 -6.45936,2.8626 c -3.55265,1.57443 -6.62591,3.08726 -6.82945,3.36184 -0.22565,0.30439 -0.31054,0.80365 -0.2175,1.27925 0.0839,0.42901 0.32797,2.33401 0.54233,4.23333 0.21436,1.89933 0.45457,3.92957 0.5338,4.51165 0.0792,0.58208 0.31216,2.64663 0.51761,4.58789 0.21214,2.0043 0.53705,3.77908 0.75189,4.10696 0.23802,0.36326 2.29714,1.43379 5.55221,2.88659 2.84564,1.27005 5.30144,2.30918 5.45733,2.30918 0.15589,0 0.28343,0.47625 0.28343,1.05834 0,1.29798 -0.21697,1.32407 -2.44669,0.29425 -8.65585,-3.99778 -9.5865,-4.36655 -11.04706,-4.37742 -2.1131,-0.0157 -14.04572,1.16311 -16.07618,1.58817 -0.32892,0.0689 -1.78604,1.22395 -3.23803,2.56687 -2.21842,2.05177 -2.63961,2.56842 -2.63764,3.23542 0.003,0.95948 2.81886,5.4486 3.83595,6.11503 0.6376,0.41776 8.9653,3.72665 12.36723,4.91393 1.90455,0.66469 0.6382,1.1424 14.21906,-5.36384 2.40314,-1.15129 4.5165,-2.09325 4.69635,-2.09325 0.20512,0 0.32701,0.39448 0.32701,1.05834 0,0.58208 -0.12316,1.05833 -0.2737,1.05833 -0.4757,0 -15.69475,7.39744 -15.92669,7.74139 -0.21666,0.3213 -0.18473,0.88987 0.33788,6.01694 0.50647,4.96871 0.83722,6.88967 1.27237,7.38986 0.23922,0.27496 2.87571,1.56856 5.85889,2.87467 6.3147,2.76472 7.49528,3.22922 8.20744,3.22922 0.43472,0 0.52381,0.18 0.52381,1.05834 v 1.05833 h -1.24307 c -1.25033,0 -1.61066,0.17128 -9.73714,4.62849 -0.58208,0.31926 -2.96333,1.62449 -5.29166,2.90051 -5.5753,3.05548 -6.76576,3.71282 -9.12813,5.04032 -1.0914,0.6133 -2.93687,1.6221 -4.10104,2.24179 -2.77266,1.47589 -3.73696,2.21892 -3.9425,3.03786 -0.16393,0.65316 -0.2309,0.67186 -2.40575,0.67186 h -2.23712 l -0.4396,-0.85989 c -1.37448,-2.68858 -4.33931,-7.69196 -5.36983,-9.06198 -0.65675,-0.87313 -2.09191,-2.60677 -3.18923,-3.85254 -1.09733,-1.24577 -3.83135,-4.37116 -6.07561,-6.94531 -2.24426,-2.57415 -4.24707,-4.68028 -4.45068,-4.68028 -0.34669,0 -3.12399,5.47056 -3.92124,7.72382 -0.40127,1.1341 -0.46552,0.84169 1.7909,8.15118 0.87597,2.83766 1.86903,6.14164 2.20679,7.34219 l 0.61412,2.18281 h -1.04065 c -0.57235,0 -1.04064,-0.0301 -1.04064,-0.067 0,-0.74687 -4.56446,-14.91383 -4.93812,-15.32673 -0.37783,-0.41749 -0.88368,-0.48129 -3.81631,-0.48129 -2.99428,0 -3.39547,0.0529 -3.5096,0.46302 -0.20569,0.73916 -0.42317,3.62077 -0.56411,7.47448 -0.0718,1.96453 -0.20555,4.55414 -0.29712,5.75469 l -0.16649,2.18281 h -0.93017 -0.93017 l 0.16811,-4.03489 c 0.0925,-2.2192 0.2421,-5.71201 0.33254,-7.76182 0.10458,-2.37047 0.0653,-3.91123 -0.1079,-4.23333 -0.16985,-0.31586 -0.93575,-0.69499 -2.03547,-1.00756 -1.50729,-0.42843 -1.81621,-0.44762 -2.12872,-0.1323 -0.33335,0.33636 -1.04253,3.50052 -3.01804,13.46574 l -0.7081,3.57187 -0.97829,0.0821 c -0.70841,0.0595 -0.97829,-0.0218 -0.97829,-0.29462 0,-0.46432 0.14177,-1.1886 1.97335,-10.08155 0.80643,-3.91548 1.46623,-7.50681 1.46623,-7.98073 0,-0.63882 -0.4103,-1.41507 -1.5864,-3.00127 -0.87252,-1.17676 -1.73913,-2.13957 -1.92579,-2.13957 -0.18667,0 -1.89238,1.45851 -3.79046,3.24114 -1.89809,1.78263 -5.04984,4.72184 -7.003898,6.53157 -6.49068,6.01129 -8.24416,7.89905 -9.85686,10.61172 -0.82564,1.38879 -1.50117,2.66871 -1.50117,2.84427 0,0.20693 -0.46825,0.31921 -1.33122,0.31921 -1.03497,0 -1.36421,-0.10304 -1.47945,-0.46302 -0.30375,-0.94878 -1.69455,-4.33783 -4.15316,-10.12031 -1.39215,-3.27422 -3.71726,-8.75109 -5.16692,-12.17083 -2.36493,-5.57885 -2.69904,-6.21771 -3.25178,-6.21771 -0.48433,0 -1.56446,1.186 -5.05271,5.548 -2.44018,3.0514 -4.50232,5.7548 -4.58253,6.00754 -0.14399,0.45366 0.18933,1.85912 2.78135,11.72779 0.7262,2.7649 1.32351,5.17591 1.32736,5.35781 0.004,0.20878 -0.37034,0.33073 -1.01629,0.33073 -1.0077,0 -1.02725,-0.0191 -1.28452,-1.25677 -0.81263,-3.90936 -3.86182,-14.81067 -4.2529,-15.20473 -0.65354,-0.65854 -5.26154,-1.81791 -5.60078,-1.40916 -0.22704,0.27357 0.93886,5.62951 2.10469,9.66858 0.44681,1.54799 1.85296,7.51841 1.85386,7.87135 5.2e-4,0.20961 -0.38677,0.33073 -1.0575,0.33073 -0.83368,0 -1.05714,-0.0983 -1.05272,-0.46302 z M 157.7022,187.93417 c 0.56418,-1.05419 5.01654,-17.1093 5.01654,-18.08955 0,-0.65983 -1.19325,-2.85307 -1.92185,-3.53243 -0.85714,-0.79922 -10.9468,-3.69551 -11.37659,-3.26571 -0.27782,0.27782 -0.19229,1.02234 1.00729,8.7678 1.06907,6.90282 1.24165,7.43317 3.96056,12.17084 1.6535,2.88119 1.88232,3.28503 2.21127,3.9026 0.39478,0.74115 0.72358,0.75499 1.10278,0.0464 z m -70.041408,-3.7758 c 1.06203,-1.93272 1.38013,-3.12155 1.78085,-6.65555 0.16501,-1.4552 0.45709,-3.95552 0.64906,-5.55625 1.20367,-10.03664 1.26467,-10.73934 0.98543,-11.3522 -0.38659,-0.84849 -2.32489,-1.73025 -4.48059,-2.03829 -0.98813,-0.1412 -2.15378,-0.30735 -2.59034,-0.36922 -0.43656,-0.0619 -2.48948,-0.31685 -4.56203,-0.56661 l -3.76828,-0.45411 -0.66349,0.62332 c -0.36492,0.34282 -0.66349,0.8946 -0.66349,1.22617 0,0.33157 0.76243,2.36465 1.69429,4.51794 0.93186,2.1533 3.20752,7.48696 5.05702,11.85259 4.96825,11.72723 4.70549,11.19842 5.31365,10.6937 0.19419,-0.16117 0.75576,-1.02584 1.24792,-1.92149 z m 83.113638,-4.72181 c 4.80994,-2.64722 9.2216,-5.07052 9.80368,-5.3851 6.60932,-3.57194 7.64794,-4.23074 7.37252,-4.67637 -0.32829,-0.5312 -9.89619,-4.70456 -10.78572,-4.70456 -0.59561,0 -3.26894,1.16733 -10.28329,4.49025 -0.90714,0.42974 -1.78446,1.00042 -1.9496,1.26817 -0.16514,0.26776 -0.78994,2.3261 -1.38843,4.5741 -0.59849,2.248 -1.26639,4.69099 -1.48423,5.42886 -0.63209,2.14108 -0.80024,3.81779 -0.38288,3.81779 0.19393,0 4.288,-2.16591 9.09795,-4.81314 z m -75.653228,-3.19051 c 1.58639,-1.49158 5.092078,-4.78536 7.790418,-7.31949 2.69834,-2.53413 5.05491,-4.78931 5.23681,-5.0115 0.66765,-0.81556 0.38467,-1.85536 -0.86999,-3.19669 -1.92305,-2.0559 -1.9373,-2.05759 -7.832908,-0.92867 -3.45093,0.6608 -5.28105,1.13138 -5.61047,1.44263 -0.49941,0.47187 -0.58945,1.03032 -1.63411,10.13589 -0.21393,1.86472 -0.43942,3.71019 -0.50107,4.10104 -0.48654,3.08441 -0.48256,3.48877 0.0343,3.48877 0.27645,0 1.80059,-1.22039 3.38698,-2.71198 z m 53.227888,-4.61777 c -1.22324,-8.17048 -1.42085,-9.09202 -2.03038,-9.46873 -0.6518,-0.40284 -9.22112,-2.045 -9.56438,-1.83286 -0.73419,0.45375 -0.0605,1.57071 3.1441,5.2131 1.85539,2.10884 4.48949,5.10677 5.85356,6.66206 1.70045,1.93882 2.56574,2.74219 2.75246,2.55547 0.18672,-0.18672 0.13788,-1.1704 -0.15536,-3.12904 z m -18.90397,-0.67389 c 0.4744,-0.36522 4.43404,-9.11081 4.43404,-9.7934 0,-0.69625 -0.41479,-0.76875 -2.57767,-0.45053 -1.1289,0.16609 -3.24317,0.46289 -4.69838,0.65956 -15.44541,2.08734 -15.06859,2.02156 -15.15804,2.64607 -0.0469,0.32706 0.57231,1.4106 1.5875,2.77812 1.5684,2.11277 2.60286,2.9493 4.08855,3.30627 0.26739,0.0643 1.26007,0.34859 2.20595,0.63188 2.10443,0.63025 9.38039,0.78992 10.11805,0.22203 z m -68.414238,-1.03894 c 0.58663,-0.46811 7.8933,-9.7613 7.97847,-10.14765 0.10593,-0.48055 -0.27843,-0.62793 -5.89506,-2.26053 -2.4677,-0.71729 -4.68881,-1.24003 -4.93579,-1.16164 -0.38137,0.12104 -2.69973,2.56125 -7.90665,8.32224 -0.59054,0.65338 -1.03997,1.36312 -0.99875,1.5772 0.15154,0.78684 2.70053,1.99669 6.5216,3.0954 3.66844,1.05483 4.51792,1.14811 5.23618,0.57498 z m 107.599948,-3.77343 c 7.73197,-3.5169 7.44156,-3.29072 7.20693,-5.61308 -0.96213,-9.523 -1.16869,-10.8093 -1.83206,-11.40871 -0.31424,-0.28393 -0.80946,-0.58214 -1.1005,-0.66268 -0.29105,-0.0805 -2.72185,-0.98994 -5.4018,-2.0209 -2.67995,-1.03094 -5.10978,-1.87445 -5.39963,-1.87445 -0.57832,0 -0.57462,-1.23407 -0.04,13.36146 0.19433,5.30507 0.3651,6.71742 0.95385,7.88867 0.62897,1.25126 1.25174,2.0332 1.61933,2.0332 0.13677,0 1.93402,-0.76658 3.99389,-1.70351 z m -8.55209,-3.19831 c 0.24453,-0.29464 0.28553,-0.95671 0.15157,-2.44739 -0.101,-1.12392 -0.2878,-4.52886 -0.41511,-7.56652 -0.12731,-3.03766 -0.34561,-5.63717 -0.48512,-5.77668 -0.22805,-0.22805 -1.57531,1.51885 -5.34779,6.93408 -0.45619,0.65484 -1.58485,2.25761 -2.50814,3.56169 -1.96681,2.77799 -1.94287,3.05073 0.32114,3.65865 0.84191,0.22606 2.7809,0.7684 4.30887,1.2052 3.26702,0.93394 3.5332,0.96281 3.97458,0.43097 z m -46.44021,-1.85749 c 0.7276,-0.0955 1.62057,-0.21228 1.98438,-0.25953 0.3638,-0.0472 2.0902,-0.27756 3.83645,-0.51181 8.01024,-1.07456 11.21009,-1.49626 12.43542,-1.63883 0.7276,-0.0847 1.60679,-0.33157 1.95375,-0.54868 0.59591,-0.3729 0.62075,-0.49197 0.44878,-2.15131 -0.10013,-0.96611 -0.33943,-3.99969 -0.53177,-6.74129 -0.26039,-3.71143 -0.45088,-5.08587 -0.74571,-5.38071 -0.3516,-0.35159 -0.91145,-0.25677 -4.99385,0.84585 -2.52883,0.68301 -4.93439,1.43745 -5.34569,1.67654 -0.63455,0.36886 -4.85579,5.06577 -7.05738,7.85265 -0.36381,0.46052 -1.64373,2.00666 -2.84428,3.43586 -1.20054,1.42921 -2.18281,2.80631 -2.18281,3.06023 0,0.53004 0.4288,0.75514 1.19063,0.62503 0.29104,-0.0497 1.12448,-0.16851 1.85208,-0.264 z m 34.72041,-2.45227 c 0.54909,-0.70075 1.57246,-2.09973 2.27417,-3.10886 0.7017,-1.00912 2.87153,-4.09695 4.82183,-6.86185 2.55194,-3.61781 3.54792,-5.24219 3.55282,-5.7944 0.004,-0.47738 -0.50657,-1.57712 -1.35184,-2.91042 -2.14427,-3.38231 -2.50883,-3.67915 -4.90634,-3.99498 -0.41056,-0.0541 -2.38098,-0.34943 -4.37872,-0.65633 -3.904,-0.59974 -3.94677,-0.59653 -7.61254,0.57166 -2.09848,0.66874 -2.62127,1.12561 -4.0183,3.51165 -1.51659,2.59024 -1.52183,2.71933 -0.59596,14.69678 0.29462,3.81125 0.42311,4.00049 3.02676,4.45777 0.94589,0.16613 2.85089,0.52877 4.23334,0.80587 3.78288,0.75825 3.80095,0.75563 4.95478,-0.71689 z m -50.463118,-0.578 c 2.243428,-0.43656 4.273838,-0.79375 4.512018,-0.79375 0.23818,0 0.62093,-0.20836 0.85056,-0.46302 0.38382,-0.42566 0.28422,-0.85801 -1.23419,-5.35781 -1.8058,-5.35149 -2.392288,-6.65476 -3.628248,-8.06244 -1.01683,-1.1581 -1.45902,-1.17475 -1.95185,-0.0735 -1.50588,3.36495 -5.69204,13.50097 -5.69204,13.78225 0,0.38566 0.9721,1.3502 1.5875,1.57516 0.73585,0.269 1.46381,0.18948 5.55625,-0.60689 z m 13.949828,-2.29347 c 1.42264,-1.69798 3.69413,-4.40665 5.04773,-6.01927 2.81313,-3.35144 3.00094,-3.63296 2.72331,-4.08217 -0.27795,-0.44973 -3.91356,-1.68707 -4.46986,-1.52127 -0.24748,0.0738 -1.93825,0.26079 -3.75726,0.41561 -5.48694,0.46701 -8.31471,0.861 -8.69683,1.21171 -0.30396,0.27898 -0.0983,1.11276 1.27425,5.16706 0.90018,2.65892 1.80134,5.15279 2.00258,5.54195 0.49809,0.96319 2.14786,2.3736 2.77643,2.3736 0.33053,0 1.4331,-1.09816 3.09965,-3.08722 z m -39.037478,1.25436 c 0.35656,-0.28047 0.84366,-0.96508 1.08246,-1.52135 0.57992,-1.35094 1.86047,-8.21146 1.66465,-8.91839 -0.0853,-0.30783 -1.37407,-1.46971 -2.86401,-2.58197 -1.48994,-1.11225 -3.78055,-2.84251 -5.09023,-3.84502 -10.08137,-7.71682 -10.07618,-7.7134 -10.97838,-7.23056 -0.53671,0.28724 -0.5477,0.35706 -1.08342,6.88015 -0.1733,2.11005 -0.25978,4.88824 -0.19218,6.17375 0.11397,2.16749 0.21757,2.52116 1.42594,4.86802 0.71667,1.3919 1.60069,2.75051 1.96449,3.01914 0.36381,0.26862 2.14974,0.91599 3.96875,1.43858 3.78552,1.08756 5.35523,1.55301 6.4823,1.92215 1.34811,0.44152 2.91057,0.35325 3.61963,-0.2045 z m 15.76836,-0.69568 c 0.32343,-0.22654 0.58804,-0.52652 0.58804,-0.66662 0,-0.14011 1.14683,-2.9611 2.5485,-6.26886 1.40167,-3.30776 2.83742,-6.77955 3.19055,-7.7151 l 0.64205,-1.701 -0.86983,-1.71372 c -1.33518,-2.63051 -1.6603,-2.95408 -2.96829,-2.95408 -1.00396,0 -1.31813,0.17499 -2.96891,1.65365 -1.01537,0.9095 -2.66978,2.36802 -3.67646,3.24115 -4.69171,4.06927 -6.95367,6.24185 -7.21213,6.92714 -0.1547,0.41017 -0.42286,1.51968 -0.59592,2.46556 -0.17306,0.94589 -0.36605,1.95792 -0.42886,2.24896 -0.31212,1.44609 -0.3991,2.98775 -0.17634,3.12542 0.34355,0.21232 1.26915,0.37124 5.10731,0.87688 1.81901,0.23964 3.84307,0.52258 4.49792,0.62875 0.65484,0.10617 1.31296,0.20895 1.46248,0.22839 0.14952,0.0194 0.53648,-0.14999 0.85989,-0.37652 z m -9.54333,-13.41261 c 0.86738,-0.76398 3.27988,-2.87734 5.3611,-4.69635 4.71573,-4.1216 4.50569,-3.91238 4.50569,-4.4881 0,-0.46528 -0.5468,-1.18401 -4.23333,-5.56441 -0.94589,-1.12392 -2.25558,-2.70556 -2.91042,-3.51477 -0.65484,-0.80921 -1.42875,-1.60275 -1.71979,-1.76343 -0.55862,-0.3084 -0.0951,-0.46908 -11.37312,3.94207 -6.42677,2.51368 -8.60292,3.71861 -8.60292,4.7634 0,0.23444 0.92273,1.12771 2.05052,1.98503 1.12779,0.85732 3.77693,2.87254 5.88698,4.47828 7.3936,5.62647 8.27453,6.24735 8.86406,6.24735 0.34013,0 1.26846,-0.59391 2.17123,-1.38907 z m 46.570688,0.37374 c 0.98613,-0.28202 3.0286,-0.84841 4.53882,-1.25864 1.51022,-0.41023 3.00503,-0.94974 3.32181,-1.19892 0.67671,-0.5323 2.5313,-3.96263 2.5313,-4.68201 0,-0.30162 -2.46848,-2.87344 -6.2922,-6.55562 -9.37522,-9.02816 -10.90516,-10.43779 -11.6262,-10.71192 -0.84412,-0.32094 -4.7545,-0.0124 -5.66564,0.44699 -0.68975,0.34779 -4.90719,5.22049 -5.35494,6.18694 -0.18274,0.39443 0.42254,1.55175 2.86454,5.47712 7.19266,11.56176 6.95465,11.25748 9.67028,12.36279 1.95419,0.7954 3.03975,0.78335 6.01223,-0.0667 z m -17.52161,-0.43764 c 2.32833,-0.21592 4.49272,-0.39405 4.80975,-0.39585 0.31703,-0.002 0.75941,-0.18627 0.98307,-0.40993 0.36583,-0.36582 0.30795,-0.56472 -0.57641,-1.98073 -6.0784,-9.73254 -7.81053,-12.40358 -8.12073,-12.52261 -0.37872,-0.14533 -1.94599,0.9113 -6.885258,4.64196 -3.27195,2.47132 -3.26271,2.44951 -2.05191,4.84046 1.11473,2.20124 3.989098,5.83538 4.936738,6.24163 0.30511,0.1308 1.031,0.17928 1.61308,0.10774 0.58209,-0.0716 2.96334,-0.30675 5.29167,-0.52267 z m 32.88493,-9.13275 c 2.56899,-0.76896 2.70775,-1.00907 2.77084,-4.79445 0.0466,-2.79508 -0.002,-3.12093 -0.69013,-4.59587 -1.43691,-3.08151 -1.98188,-4.26416 -3.35279,-7.27605 -0.76173,-1.67349 -1.74056,-3.81661 -2.17519,-4.7625 -0.43464,-0.94588 -1.06342,-2.33478 -1.3973,-3.08644 -0.33388,-0.75167 -0.82642,-1.48228 -1.09454,-1.62358 -0.8303,-0.43759 -7.91748,-0.69166 -8.82362,-0.31633 -0.62364,0.25832 -1.3311,1.26526 -3.43454,4.88841 -1.45701,2.50969 -2.64912,4.80356 -2.64912,5.0975 0,0.34689 1.50431,1.9613 4.28669,4.60046 2.35767,2.23631 6.16629,5.88505 8.46359,8.10831 2.2973,2.22326 4.44618,4.14937 4.77529,4.28024 0.67761,0.26946 0.69168,0.26726 3.32082,-0.5197 z m 17.23936,-1.86265 c 1.44812,-1.31681 2.8781,-2.79089 3.17775,-3.27573 0.3416,-0.55272 0.6943,-1.90485 0.9456,-3.62507 1.73995,-11.91071 1.89743,-13.31317 1.52099,-13.54582 -0.14156,-0.0875 -1.85319,0.53981 -3.80363,1.39401 -1.95044,0.85419 -5.33219,2.33755 -7.515,3.29637 -2.18281,0.95881 -4.12001,1.94864 -4.30489,2.19963 -0.42968,0.58332 -0.73369,1.72498 -1.67588,6.29352 -0.74815,3.62762 -1.03148,7.87455 -0.5454,8.17496 0.12139,0.075 0.56787,0.19582 0.99219,0.26843 1.34703,0.23052 4.43711,0.71213 5.53398,0.86252 0.58208,0.0798 1.10794,0.19151 1.16858,0.24824 0.0606,0.0567 0.50681,0.10314 0.99151,0.10314 0.73974,0 1.30413,-0.38452 3.5142,-2.3942 z m -63.902628,0.83866 c 0.15652,-0.12147 2.36818,-1.78069 4.9148,-3.68717 5.652358,-4.23154 5.817138,-4.37561 8.312728,-7.26764 2.78594,-3.2285 2.93551,-3.47827 2.47585,-4.13453 -0.96799,-1.382 -6.21926,-6.83509 -7.06037,-7.33171 -1.29112,-0.76233 -12.335538,-3.89397 -13.069248,-3.70578 -0.67452,0.173 -6.52369,4.76744 -7.79073,6.1195 l -0.8599,0.9176 v 3.5226 c 0,3.40072 0.0252,3.56052 0.72761,4.61873 1.33769,2.01521 8.57666,10.42166 9.42006,10.93928 0.8314,0.51026 2.27758,0.51476 2.9292,0.009 z m -36.75707,-2.38211 c 0.58208,-0.26755 1.57539,-0.94954 2.20735,-1.51555 1.14769,-1.0279 1.14945,-1.03231 1.52073,-3.80722 0.491,-3.66979 1.32661,-10.43874 1.97606,-16.00729 0.28851,-2.47385 0.58466,-4.69055 0.6581,-4.92599 0.23077,-0.73983 -0.36873,-1.83247 -2.18877,-3.98921 -1.29215,-1.531197 -1.90683,-2.067617 -2.30387,-2.010547 -0.51778,0.0744 -1.20217,0.96952 -8.45507,11.058037 -1.20312,1.67349 -3.74366,5.20096 -5.64564,7.83883 -3.78999,5.25632 -4.13985,5.80971 -3.90908,6.18311 0.0859,0.13897 0.9546,0.68919 1.93047,1.22271 0.97586,0.53352 2.66727,1.4739 3.75868,2.08974 4.1892,2.36381 8.22258,4.36121 8.79541,4.35564 0.32851,-0.003 1.07355,-0.22472 1.65563,-0.49226 z m 114.035408,-3.34684 c 2.32833,-0.23078 4.88041,-0.46859 5.67128,-0.52849 2.26051,-0.17119 2.26677,-0.189 1.72993,-4.92477 -0.25333,-2.23481 -0.49323,-4.36095 -0.53311,-4.72475 -0.76756,-7.00221 -0.97179,-8.35549 -1.31882,-8.73895 -0.30379,-0.33569 -1.36023,-0.50252 -4.79717,-0.75756 -4.15619,-0.30841 -4.43274,-0.29969 -4.8487,0.15295 -0.4999,0.54398 -0.93561,2.21197 -1.33489,5.11023 -0.15035,1.0914 -0.33624,2.34156 -0.41308,2.77812 -0.12951,0.73583 -0.27511,1.75013 -1.29047,8.99002 -0.45268,3.22771 -0.35055,3.43713 1.56851,3.21624 0.73325,-0.0844 3.23819,-0.34227 5.56652,-0.57304 z M 65.914832,125.7927 c 1.07294,-0.4278 4.38457,-1.73753 7.35919,-2.91051 2.97462,-1.17298 5.50288,-2.28147 5.61834,-2.46332 0.11547,-0.18184 0.21177,-1.84867 0.214,-3.70406 0.004,-2.97219 -0.0561,-3.43362 -0.50185,-3.87934 -0.54429,-0.54429 -11.4688,-7.90211 -12.08204,-8.13743 -0.55051,-0.21126 -0.81457,0.74497 -1.29939,4.7055 -0.2384,1.94753 -0.65917,5.38642 -0.93504,7.64199 -0.27588,2.25558 -0.63552,5.15014 -0.7992,6.43236 -0.29394,2.30267 -0.23395,3.09264 0.23488,3.09264 0.13218,0 1.11818,-0.35002 2.19111,-0.77783 z m -44.92324,-1.93414 c 0.3565,-0.32743 1.6597,-2.73844 2.89598,-5.35782 1.23629,-2.61937 2.81299,-5.95312 3.5038,-7.40833 0.6908,-1.45521 2.61211,-5.50333 4.26957,-8.99583 1.65747,-3.492497 3.41785,-7.178827 3.91196,-8.191829 0.6437,-1.31968 0.8305,-1.96868 0.65891,-2.28929 -0.34024,-0.63575 -3.2948,-1.59325 -4.04095,-1.30957 -0.94363,0.35877 -9.08535,7.893822 -9.38642,8.687012 -0.27971,0.73689 -0.60502,2.540247 -1.12424,6.232237 -0.16013,1.13863 -0.34615,2.37357 -0.41338,2.74433 -0.0672,0.37076 -0.30162,1.87993 -0.52085,3.35373 -0.21924,1.47379 -0.57559,3.87025 -0.7919,5.32546 -0.2163,1.45521 -0.44715,3.00302 -0.513,3.43958 -0.50983,3.38007 -0.57984,3.99205 -0.4767,4.16719 0.23918,0.40616 1.40039,0.17883 2.02722,-0.39687 z m 8.50945,-0.62311 c 8.29983,-0.7277 8.7196,-0.77748 9.30472,-1.10331 0.59782,-0.33291 1.47136,-1.50207 11.21355,-15.00848 8.03135,-11.134527 7.92443,-10.975707 7.92443,-11.771697 0,-0.39237 -0.2634,-0.944302 -0.59531,-1.247382 -1.14721,-1.04757 -7.428,-5.38092 -8.01136,-5.52733 -0.67014,-0.1682 -9.45758,2.63699 -10.33983,3.30075 -0.30688,0.23088 -0.71507,0.77904 -0.90709,1.21814 -0.19201,0.43909 -1.82506,3.893982 -3.62899,7.677519 -1.80393,3.78354 -3.93042,8.24838 -4.72554,9.92187 -0.79511,1.67349 -2.43827,5.12542 -3.65146,7.67095 -1.2132,2.54552 -2.14836,4.77795 -2.07814,4.96093 0.15565,0.40561 -0.25932,0.41256 5.49502,-0.092 z m 116.256128,-4.68386 c 0.7001,-3.75233 0.79802,-6.0567 0.28369,-6.67643 -0.62968,-0.75872 -7.72605,-4.15283 -7.94431,-3.79967 -0.16593,0.26848 0.33594,1.54214 2.12709,5.39817 0.27038,0.58208 1.16457,2.54661 1.9871,4.36562 0.82252,1.81901 1.68192,3.59583 1.90978,3.94848 0.38394,0.59423 0.4388,0.60764 0.74921,0.18314 0.18421,-0.25193 0.58356,-1.79062 0.88744,-3.41931 z m -28.38871,-2.17062 c 0.58039,-0.23585 1.12818,-0.863 1.87737,-2.14933 0.58182,-0.99897 1.86171,-3.18553 2.84419,-4.85902 1.97677,-3.36706 2.2371,-4.44285 1.88064,-7.77144 -0.2858,-2.668767 -0.43134,-2.769187 -4.64359,-3.203977 -1.96453,-0.20278 -5.29066,-0.5557 -7.39139,-0.78427 -2.10074,-0.22856 -4.02942,-0.34895 -4.28595,-0.26753 -0.5652,0.17939 -0.48795,-0.0941 -1.70424,6.033917 -0.7106,3.5802 -0.92199,5.16558 -0.74942,5.6203 0.38361,1.01081 6.66506,7.73464 7.3262,7.84217 1.02641,0.16693 3.99634,-0.11548 4.84619,-0.46082 z m 36.08986,-2.84733 c 11.33127,-4.94667 11.64167,-5.12558 11.64167,-6.71033 0,-0.6449 -0.32457,-1.2505 -1.28514,-2.39789 -1.69007,-2.01879 -2.05298,-2.32346 -3.88139,-3.25854 -1.53858,-0.78686 -2.38553,-0.95734 -2.91931,-0.58761 -0.64592,0.44742 -8.00368,10.58788 -8.28074,11.41252 -0.4058,1.20781 -0.38906,3.127 0.0286,3.27392 0.39562,0.13917 0.48767,0.10522 4.69635,-1.73207 z M 80.857902,110.8846 c 0.65418,-0.37752 3.12091,-2.32804 5.73343,-4.53362 l 1.85545,-1.56642 -0.18054,-3.98983 c -0.21376,-4.723927 -0.44654,-5.921017 -1.29345,-6.651839 -0.34788,-0.30019 -3.77377,-1.57918 -7.62062,-2.845 -6.36738,-2.09522 -7.17167,-2.29958 -9.04765,-2.29892 -1.20171,5.3e-4 -2.41352,0.15725 -2.91042,0.37664 -0.46827,0.20674 -2.16109,1.37489 -3.76181,2.59588 -3.6186,2.760152 -3.72048,3.070682 -1.77097,5.397642 2.78146,3.319977 4.53886,4.771067 11.25285,9.291507 3.72833,2.51023 6.8706,4.55984 6.98282,4.55468 0.11222,-0.005 0.45463,-0.15398 0.76091,-0.33072 z m 70.434058,-6.0099 c 1.9372,-2.54661 3.70079,-4.966067 3.9191,-5.376577 0.38302,-0.72022 0.36174,-0.78972 -0.6078,-1.98437 -1.83883,-2.26579 -3.32916,-3.751552 -3.76309,-3.751552 -0.23599,0 -3.03867,2.611632 -6.22819,5.803622 -5.16605,5.170057 -5.75939,5.851477 -5.4352,6.242097 0.66118,0.79667 6.93863,3.81968 7.79925,3.75586 0.69477,-0.0515 1.23294,-0.63622 4.31593,-4.68908 z m -48.0268,1.66099 c 0.0769,-0.40422 0.39308,-1.9851 0.70254,-3.51307 0.86567,-4.274337 1.18034,-6.479467 0.99392,-6.965267 -0.15318,-0.39918 -0.87526,-0.44307 -7.289678,-0.44307 -5.5399,0 -7.18336,0.0768 -7.40676,0.34594 -0.20213,0.24356 -0.21299,1.242 -0.0367,3.37344 0.13772,1.665127 0.25234,3.282197 0.2547,3.593497 0.01,1.25555 0.74962,1.6326 6.35431,3.23738 3.580928,1.02533 5.570718,1.4771 5.855868,1.32957 0.23755,-0.12292 0.49486,-0.55421 0.5718,-0.95842 z m 32.99176,-1.79925 c 1.07592,-0.56895 13.30512,-13.005759 13.17447,-13.398119 -0.0649,-0.19483 -0.31875,-0.39318 -0.56415,-0.44077 -0.24541,-0.0476 -3.50976,1.1325 -7.25412,2.62243 -3.74436,1.489922 -8.70556,3.463082 -11.02489,4.384792 -2.31934,0.92172 -4.31181,1.82522 -4.42772,2.00778 -0.33343,0.525157 -0.24537,3.703537 0.12281,4.432977 0.32221,0.63838 0.44903,0.66684 3.63412,0.81562 3.80354,0.17768 5.40298,0.0705 6.33948,-0.42471 z m 27.07332,-6.542467 c 2.1477,-2.52483 6.59795,-8.258062 6.86654,-8.846122 0.20149,-0.44116 0.14306,-0.78546 -0.24696,-1.4552 -0.80964,-1.39031 -1.31662,-1.50046 -5.77587,-1.25497 -2.18282,0.12017 -5.87375,0.30036 -8.20209,0.40041 -2.32833,0.10005 -4.44169,0.28888 -4.69635,0.41961 -0.63654,0.32678 -0.57655,1.15473 0.20535,2.83439 0.59763,1.28382 1.87977,2.90548 5.02017,6.349562 1.03198,1.13177 4.22967,2.94138 5.1976,2.94138 0.24751,0 0.98174,-0.62507 1.63161,-1.38906 z m -28.68373,-4.023262 c 4.16186,-1.65057 8.80948,-3.49301 10.32803,-4.09432 1.51856,-0.6013 2.91754,-1.22319 3.10886,-1.38196 0.49876,-0.41394 0.42891,-1.4848 -0.11586,-1.77636 -0.41991,-0.22473 -4.30584,-0.93664 -8.79672,-1.61159 -0.94588,-0.14216 -3.2676,-0.50405 -5.15937,-0.80421 -1.89177,-0.30017 -4.62924,-0.72184 -6.08326,-0.93705 -1.45402,-0.21522 -2.82324,-0.44701 -3.04271,-0.51508 -0.21947,-0.0681 -0.56615,-0.0189 -0.7704,0.10935 -0.40364,0.25339 -0.39594,0.40872 0.36204,7.29542 0.67076,6.094272 0.7071,6.336222 1.00573,6.697742 0.39761,0.48134 0.58434,0.42057 9.16366,-2.981942 z m -11.88428,2.110372 c 0.21056,-0.25371 0.27119,-0.83584 0.17223,-1.653652 -0.084,-0.69416 -0.27988,-2.45273 -0.43529,-3.90794 -0.54583,-5.1109 -1.0606,-8.37049 -1.43341,-9.07661 -0.51398,-0.97345 -4.24565,-5.1143 -4.98063,-5.52675 -0.3726,-0.20909 -1.03894,-0.27539 -1.78514,-0.17762 -1.65417,0.21674 -4.54269,1.37333 -5.06367,2.02755 -0.24337,0.30559 -0.50892,1.30694 -0.60551,2.28325 -0.0946,0.95641 -0.22645,2.15565 -0.29295,2.66497 -0.0665,0.50933 -0.29873,2.65245 -0.51609,4.7625 -0.21736,2.11006 -0.46593,4.43178 -0.55237,5.15938 -0.249,2.095792 -0.0143,2.253372 4.01019,2.692852 1.8795,0.20525 4.78649,0.53161 6.45998,0.72525 4.12708,0.47754 4.64629,0.48031 5.02266,0.0268 z M 26.710222,92.343081 c 1.89875,-1.7264 3.45227,-3.28062 3.45227,-3.45383 0,-0.51076 -4.20792,-4.12288 -4.80293,-4.12288 -0.49524,0 -4.34836,2.08355 -4.82024,2.60652 -0.48567,0.53824 -0.47632,0.61782 0.49257,4.19658 0.5432,2.00637 1.04509,3.744042 1.11533,3.861512 0.31811,0.53199 1.34902,-0.16566 4.563,-3.087902 z m 78.288608,0.80676 c 0.15875,-0.19128 0.35114,-0.99496 0.42753,-1.78594 0.0764,-0.79099 0.2702,-2.62878 0.43067,-4.08399 0.31086,-2.81894 0.33373,-3.04599 0.64558,-6.40863 0.28147,-3.03504 0.35015,-2.98408 -4.02161,-2.98408 -4.228248,0 -3.812238,-0.2803 -6.541598,4.40756 -1.00326,1.72319 -2.41753,4.1451 -3.14281,5.38202 -0.72528,1.23693 -1.55595,2.66568 -1.84592,3.175 -0.28997,0.50933 -0.68802,1.15606 -0.88454,1.43718 -0.78578,1.12404 -0.26538,1.20866 7.43282,1.20866 5.634798,0 7.274338,-0.076 7.499878,-0.34778 z m -42.122778,-3.01594 c 3.18804,-2.3946 3.39185,-2.68561 3.66651,-5.23524 0.0784,-0.7276 0.32556,-3.04932 0.54929,-5.15938 0.22372,-2.11005 0.56805,-5.324735 0.76518,-7.143745 0.99131,-9.14745 1.22341,-11.722721 1.14857,-12.744108 l -0.0816,-1.114465 -2.64583,-1.049142 c -3.56203,-1.412435 -4.19821,-1.387305 -11.64167,0.459902 -7.72635,1.917411 -7.87765,1.981827 -8.60024,3.661529 -1.09772,2.551713 -1.20218,3.777541 -0.53587,6.288368 1.30995,4.936249 3.78673,14.516911 4.16473,16.109991 0.50964,2.14787 1.07297,2.74652 5.62032,5.97267 2.64201,1.87439 3.69495,2.48217 4.08549,2.35822 0.28937,-0.0918 1.8667,-1.17392 3.50517,-2.4046 z m 28.98113,-4.70845 c 4.75388,-8.03115 4.77688,-8.07657 4.38044,-8.65076 -0.66125,-0.9577 -5.60623,-4.46178 -6.18934,-4.385858 -0.50335,0.06554 -4.92571,4.036078 -13.0493,11.716078 -1.54864,1.46408 -2.51878,2.58506 -2.51878,2.91042 0,0.45551 0.9014,0.83188 6.47648,2.70418 5.46074,1.8339 6.55333,2.124 6.96643,1.84971 0.26947,-0.17892 2.0398,-2.94362 3.93407,-6.14377 z m -48.86239,2.77339 c 2.60108,-0.81616 4.39932,-1.52576 4.66383,-1.84038 0.39862,-0.47415 0.39325,-0.6451 -0.0726,-2.30885 -0.4327,-1.5454 -1.17913,-4.41647 -3.69909,-14.228202 -0.70848,-2.758562 -0.73205,-2.762512 -4.81638,-0.807437 -8.72677,4.177303 -11.30673,5.501899 -11.52139,5.915274 -0.41359,0.796505 -0.97251,7.107455 -0.70429,7.952525 0.14364,0.45256 3.80105,3.54284 5.50035,4.64744 0.9544,0.62039 4.90991,1.99183 5.75476,1.99527 0.3638,0.002 2.56646,-0.59506 4.89479,-1.32564 z m 28.23412,-1.78576 c 0.54012,-0.25085 2.38188,-1.76577 4.09281,-3.3665 10.81602,-10.119416 12.92603,-12.169257 13.00507,-12.634225 0.1877,-1.104342 -1.63102,-3.096562 -6.09862,-6.680406 -2.43257,-1.951377 -4.72037,-3.742894 -5.08401,-3.981154 -0.40123,-0.262901 -1.47086,-0.488188 -2.72088,-0.573077 -3.09186,-0.209965 -3.16575,-0.114818 -3.63945,4.686567 -0.53284,5.400882 -1.20724,11.893395 -1.33292,12.832295 -0.37829,2.82593 -0.93492,9.51134 -0.81743,9.81753 0.19199,0.50031 1.40204,0.45321 2.59543,-0.10103 z m 87.785658,-1.54979 c 1.52797,-0.071 4.14735,-0.21119 5.82083,-0.31147 3.02929,-0.18152 3.04307,-0.18537 3.12287,-0.87298 0.12186,-1.05 -1.48929,-7.68343 -2.00442,-8.25265 -0.40667,-0.449363 -0.77619,-0.490238 -3.62988,-0.401521 l -3.17711,0.09877 -2.92871,1.51233 c -1.61079,0.83178 -3.17202,1.78105 -3.4694,2.10949 -0.65913,0.72795 -2.0277,5.47496 -1.77117,6.14346 0.16693,0.43502 0.41676,0.46177 2.72134,0.29135 1.39564,-0.1032 3.78768,-0.24575 5.31565,-0.316779 z m -10.14376,-1.15526 c 0.1713,-0.3638 0.58244,-1.70075 0.91364,-2.971 0.57349,-2.1995 0.58122,-2.3535 0.16227,-3.23205 -0.62184,-1.304 -3.33126,-4.91212 -3.83329,-5.104768 -0.40714,-0.156237 -1.23402,0.08124 -4.82594,1.386001 -0.94589,0.343591 -3.62479,1.298967 -5.95313,2.123057 -9.05984,3.20664 -11.50937,4.16534 -11.50937,4.50452 0,0.41731 1.08001,0.64873 8.06979,1.72919 9.24799,1.42952 12.1432,1.88897 13.22917,2.09936 0.58208,0.11278 1.59317,0.18752 2.24686,0.1661 0.98875,-0.0324 1.24089,-0.15014 1.5,-0.70041 z m -23.11403,-6.48456 c 1.84705,-0.65609 4.81716,-1.71523 6.60022,-2.35364 1.78307,-0.638408 5.14695,-1.8386 7.47528,-2.667093 2.32833,-0.828492 4.39985,-1.666525 4.60337,-1.862299 0.31047,-0.298659 0.31403,-0.491146 0.0221,-1.195919 -1.10684,-2.672175 -6.84164,-10.5719 -7.67466,-10.5719 -0.2441,0 -2.17474,1.458515 -4.29029,3.241145 -2.11556,1.782631 -5.06208,4.253177 -6.54782,5.490105 -7.7282,6.43397 -7.94484,6.635226 -7.93505,7.371497 0.009,0.700774 3.08272,3.741004 3.78183,3.741004 0.3337,0 2.11797,-0.53681 3.96503,-1.1929 z m 29.40643,-2.238628 c 1.33752,-0.723175 2.64508,-1.550475 2.90569,-1.838444 0.36309,-0.401217 0.5277,-1.245283 0.70431,-3.611597 0.31167,-4.176064 -0.21309,-7.836641 -1.17642,-8.206309 -0.35909,-0.137792 -2.49029,0.555384 -8.63638,2.808997 -3.32519,1.219261 -3.70417,1.431665 -3.70417,2.076055 0,0.611085 2.67044,5.027242 4.69915,7.771054 1.16496,1.575602 1.8817,2.315102 2.24385,2.315102 0.29267,0 1.62646,-0.59169 2.96397,-1.314858 z m -46.09403,0.523928 c 0.93726,-0.28948 1.92658,-0.772171 2.1985,-1.072637 0.545,-0.602224 0.8365,0.03433 -6.02022,-13.146466 -2.22951,-4.285818 -3.09898,-5.293328 -4.30656,-4.990242 -0.62788,0.157585 -4.466268,3.536153 -9.386678,8.262188 l -2.51653,2.417122 0.4281,0.897724 c 0.70329,1.474832 1.66654,2.43695 4.79477,4.789135 3.81432,2.868076 3.94707,2.935536 6.148798,3.124776 4.11144,0.35338 6.89732,0.26279 8.65982,-0.2816 z m 6.43132,-2.299457 c 0.3657,-0.365707 0.41136,-0.729388 0.2574,-2.050521 -0.10293,-0.88328 -0.22787,-2.022684 -0.27765,-2.532007 -0.20741,-2.122363 -0.70914,-7.617441 -0.78512,-8.598958 -0.32513,-4.200178 -0.73612,-7.220937 -1.04699,-7.695382 -0.5321,-0.812094 -1.8739,-1.310386 -2.60122,-0.965999 -0.80904,0.383079 -5.54428,4.215063 -5.82212,4.711543 -0.14622,0.261279 -0.0504,0.753417 0.26959,1.383906 4.4892,8.846466 7.87857,15.294068 8.33794,15.861244 0.37566,0.46382 1.14287,0.411472 1.66817,-0.113826 z m 54.35159,-1.211763 c 1.38239,-0.509801 2.642,-1.145294 2.81326,-1.419336 0.17056,-0.272923 0.38135,-1.236334 0.46842,-2.140915 0.23145,-2.404476 -0.12274,-2.702214 -4.47415,-3.761002 -3.75833,-0.914477 -3.95816,-0.902089 -5.8714,0.364035 -1.55178,1.026922 -1.85433,1.762156 -1.96063,4.764582 -0.0913,2.57997 -0.0798,2.640568 0.56823,2.990265 0.47641,0.257077 1.40164,0.324557 3.30729,0.24121 2.18632,-0.09562 3.08057,-0.276042 5.14898,-1.038839 z m -134.852498,-3.194812 7.74402,-3.781813 0.45762,-1.164982 c 0.68753,-1.750301 0.32108,-1.992315 -3.77832,-2.495309 -3.70477,-0.454573 -10.24785,-1.280523 -13.96932,-1.763385 -3.14908,-0.408596 -3.17037,-0.38958 -3.63325,3.245996 -0.19193,1.507458 -0.48585,3.681232 -0.65316,4.830609 -0.27978,1.922118 -0.26453,2.129427 0.19004,2.584005 0.8149,0.814891 4.59817,2.562461 5.27982,2.438853 0.3402,-0.06169 4.10334,-1.813976 8.36255,-3.893974 z M 122.5385,67.700745 c 2.07369,-1.74625 4.68128,-3.948907 5.79464,-4.894792 1.11336,-0.945885 2.60263,-2.196042 3.3095,-2.778125 4.34266,-3.576039 4.44806,-3.727852 4.86752,-7.011458 0.97911,-7.664461 0.99047,-8.503309 0.11962,-8.83748 -0.45011,-0.172728 -1.1771,0.100417 -11.21729,4.214585 -3.41974,1.401307 -6.84487,2.793915 -7.61139,3.094683 -1.04885,0.411548 -1.43544,0.713232 -1.56246,1.219298 -0.0928,0.369845 -0.0238,2.227762 0.15336,4.128701 1.3521,14.507061 1.31951,14.276146 1.99335,14.125289 0.21054,-0.04714 2.07945,-1.514452 4.15315,-3.260701 z M 88.965372,64.205003 c 0.61888,-0.54021 1.96635,-1.760601 2.99437,-2.711979 1.02802,-0.951378 3.02232,-2.779797 4.43177,-4.06315 1.8304,-1.666642 2.56265,-2.508375 2.56265,-2.945829 0,-0.676132 -4.83464,-11.116643 -5.48664,-11.848515 -0.38706,-0.434485 -0.46012,-0.430162 -1.36963,0.08101 -1.41203,0.793605 -2.67554,2.072185 -6.50519,6.582799 -1.89177,2.228149 -4.24998,4.99845 -5.24046,6.156227 -0.99048,1.157777 -1.76403,2.296382 -1.719,2.530229 0.0842,0.43724 7.33476,6.503837 8.28237,6.929927 0.79892,0.35923 0.84052,0.344805 2.04976,-0.710719 z m 61.884518,-2.866416 c 3.39917,-1.243616 6.34931,-2.428904 6.55587,-2.633977 0.50254,-0.498904 1.39689,-6.573623 1.08758,-7.387156 -0.28206,-0.741884 -3.99368,-4.137261 -4.98251,-4.557985 -0.97475,-0.414729 -4.68059,-0.819825 -9.47389,-1.035616 -3.98647,-0.179467 -3.99863,-0.178258 -4.43178,0.44015 -0.23889,0.341061 -0.43434,0.990944 -0.43434,1.444188 0,0.453242 -0.17789,2.004327 -0.39531,3.446857 -0.21743,1.442529 -0.3954,3.337155 -0.39551,4.21028 l -1.9e-4,1.5875 2.39263,3.167261 c 2.49868,3.307659 2.75171,3.568927 3.46287,3.575563 0.23885,0.0021 3.21541,-1.013452 6.61458,-2.257065 z m 11.91443,1.40122 c 0.96451,-0.724321 1.4516,-1.480018 3.08939,-4.793078 1.63551,-3.308442 1.88742,-3.990109 1.58596,-4.291573 -0.19712,-0.197112 -1.3102,-0.554363 -2.47352,-0.79389 -3.33226,-0.686112 -3.70569,-0.716275 -4.03001,-0.325499 -0.4929,0.593908 -1.20226,6.192184 -0.99575,7.858437 0.22867,1.845004 0.77578,3.205499 1.28907,3.205499 0.21439,0 0.90508,-0.386953 1.53486,-0.859896 z m 10.3507,0.479981 c 0.20896,-0.208955 0.46689,-1.191221 0.57319,-2.182813 0.1063,-0.991595 0.2383,-2.041022 0.29333,-2.332064 0.35228,-1.86305 0.42175,-3.862855 0.14575,-4.195418 -0.42824,-0.515996 -2.73749,-0.781156 -3.55583,-0.408297 -0.47577,0.216778 -1.17577,1.305599 -2.46739,3.837929 -1.58434,3.106251 -1.75563,3.581093 -1.41144,3.912674 0.21545,0.207558 1.58236,0.679606 3.03757,1.048994 3.18483,0.808434 2.92031,0.783505 3.38482,0.318995 z M 44.296062,59.734937 c 0.23019,-0.08833 0.41852,-0.405699 0.41852,-0.705263 0,-0.458091 -1.37829,-3.244908 -3.40689,-6.888525 -0.25862,-0.464515 -1.16397,-2.154258 -2.01188,-3.754987 -0.84791,-1.60073 -1.71568,-3.113538 -1.92837,-3.361796 -0.54857,-0.640295 -1.31584,-0.70548 -13.42265,-1.140386 -13.68756,-0.491689 -13.36146,-0.491884 -13.36146,0.0081 0,0.334621 4.35754,5.434081 9.50879,11.127782 1.79222,1.980941 2.16024,2.142784 5.96933,2.625122 1.89177,0.239551 4.8088,0.613034 6.48229,0.829963 3.0273,0.39242 10.43518,1.32483 11.02472,1.387655 0.17,0.01812 0.49742,-0.03933 0.7276,-0.127661 z m 16.71372,-5.415013 c 0.53466,-0.44373 0.5365,-8.868044 0.002,-10.146773 -0.30134,-0.721215 -4.49873,-6.63851 -6.89084,-9.714415 -0.29867,-0.38404 -1.01929,-1.371838 -1.60137,-2.195105 -1.35808,-1.920803 -1.97398,-2.305147 -3.94499,-2.461858 l -1.61116,-0.128108 -1.45521,1.566793 c -4.13126,4.448035 -4.76902,5.427998 -5.80648,8.922033 -0.73969,2.491171 -0.69481,3.547769 0.22217,5.230812 0.42113,0.772946 1.97414,3.667546 3.45112,6.432442 1.47699,2.764896 2.96491,5.278099 3.30651,5.584893 l 0.62108,0.557814 6.66675,-1.669257 c 3.66672,-0.918091 6.83486,-1.808763 7.0403,-1.979271 z m 14.69975,2.658862 c 0.7441,-0.206682 1.50532,-0.88709 3.32842,-2.975086 5.8641,-6.716163 8.56584,-10.046952 8.48856,-10.46497 -0.0515,-0.278788 -1.99119,-1.413846 -5.20808,-3.047687 -4.21876,-2.142691 -5.18334,-2.540715 -5.45017,-2.248959 -0.17831,0.194972 -0.64201,1.902307 -1.03045,3.794078 -0.38844,1.89177 -0.76867,3.737239 -0.84497,4.101041 -0.13614,0.64914 -0.28072,1.351577 -1.51097,7.340661 -0.54426,2.649543 -0.56753,3.018626 -0.21272,3.373437 0.46528,0.465278 1.1041,0.498647 2.44038,0.127485 z m -4.97565,-0.72127 c 0.25493,-0.938356 0.9905,-4.352682 2.94236,-13.657567 1.25349,-5.97562 1.24023,-6.344819 -0.32052,-8.924142 -0.89626,-1.481177 -1.40856,-2.07704 -1.78593,-2.077227 -0.50031,-2.49e-4 -2.52711,3.114936 -7.08485,10.889437 l -1.04045,1.774769 0.0366,4.812978 c 0.0201,2.647137 0.13942,4.996706 0.26509,5.221261 0.29464,0.526483 4.91916,2.370664 6.01983,2.400604 0.59032,0.01606 0.87968,-0.11552 0.96786,-0.440113 z m 35.395828,-3.571875 c 3.60733,-2.830349 3.76007,-2.99982 3.59448,-3.988189 -0.0774,-0.462251 -0.76613,-2.443136 -1.53042,-4.401966 -1.26841,-3.250848 -2.31828,-4.990473 -2.82569,-4.682106 -0.10792,0.06559 -2.22028,0.266996 -4.69413,0.447577 -4.540648,0.331446 -5.423958,0.518668 -5.423958,1.149633 0,0.19054 1.301,3.028379 2.89112,6.306309 2.939918,6.060467 3.654558,7.086971 4.933888,7.086971 0.35591,0 1.62801,-0.79882 3.05471,-1.918229 z m 71.43789,-2.023023 c 5.13607,-3.408169 7.24385,-5.003853 7.24385,-5.48391 0,-0.345366 -1.25247,-1.3432 -4.11053,-3.274838 -8.45224,-5.712508 -8.18792,-5.564465 -10.24226,-5.736693 -3.0322,-0.254209 -3.96416,0.0041 -6.17782,1.712354 -6.24802,4.821492 -8.70585,6.927612 -8.70585,7.460043 0,0.243351 0.67072,1.027547 1.4905,1.74266 3.188,2.78099 3.19246,2.782887 9.51311,4.051996 3.47959,0.698661 3.81169,0.737978 6.62338,0.784164 l 2.41345,0.03964 z m -54.74393,-3.362579 c 13.07309,-5.274604 12.84328,-5.157856 12.3663,-6.282441 -0.13272,-0.312915 -1.08067,-2.65253 -2.10656,-5.199145 -1.02589,-2.546614 -1.97908,-4.868333 -2.1182,-5.159374 -0.13913,-0.291042 -0.80179,-1.898386 -1.47258,-3.571875 -0.6708,-1.67349 -1.28067,-3.191537 -1.35528,-3.373438 -0.34742,-0.847087 -1.50513,-0.142259 -6.43236,3.916124 -2.83582,2.335769 -6.20395,5.103972 -7.48474,6.151563 -1.28078,1.047588 -2.60999,2.142834 -2.95379,2.433875 -0.3438,0.291042 -1.11159,0.922843 -1.7062,1.404001 -0.72091,0.583367 -1.0811,1.086067 -1.0811,1.508837 0,0.641202 2.4539,6.997872 3.52054,9.119748 0.46789,0.930767 1.96095,1.858039 2.99174,1.858039 0.50162,0 3.85798,-1.202425 7.83223,-2.805914 z m 30.49051,-3.179273 c 0.72308,-0.277471 1.18258,-1.537176 1.59926,-4.384273 1.21953,-8.332832 1.25963,-8.717515 0.94152,-9.032322 -0.23925,-0.236765 -0.36909,-0.216235 -0.55147,0.0872 -0.1312,0.218281 -2.20449,3.01625 -4.60732,6.217708 -2.40282,3.201459 -4.37166,6.018798 -4.37518,6.260754 -0.005,0.337399 0.37896,0.499107 1.64723,0.693891 1.97903,0.303942 4.75095,0.385371 5.34596,0.157042 z m -10.28211,-0.688832 c 1.04156,-0.47457 13.68356,-17.441724 13.54226,-18.175427 -0.0905,-0.470004 -1.39812,-0.843675 -11.58267,-3.309934 -4.00183,-0.969069 -9.01856,-2.199314 -11.14829,-2.733878 -3.40664,-0.855067 -3.92722,-0.926299 -4.32954,-0.592408 -0.77146,0.640255 -0.32447,2.46431 1.9871,8.108985 1.18308,2.888998 2.98042,7.276786 3.99408,9.75064 2.17793,5.315267 2.80222,6.491538 3.68141,6.93639 0.8406,0.425321 2.93782,0.433824 3.85565,0.01564 z m 45.75188,0.05336 c 0.092,-0.148863 -0.24252,-1.012066 -0.74339,-1.918229 -1.87943,-3.400219 -2.48557,-4.508365 -7.26409,-13.280363 -2.69259,-4.94283 -5.02936,-9.202042 -5.19282,-9.464917 -0.46838,-0.753227 -1.04776,-0.4268 -1.28894,0.726196 -0.31105,1.487 -0.92495,13.881551 -0.72725,14.682976 0.12335,0.500021 1.67683,1.679962 6.36504,4.834525 3.41102,2.295184 6.43999,4.281935 6.73103,4.414999 0.72448,0.331232 1.91701,0.333939 2.12042,0.0048 z M 66.329622,35.620016 c 2.01877,-3.310599 3.80681,-6.333652 3.97343,-6.717895 0.16662,-0.384243 0.38614,-1.543014 0.48784,-2.575048 0.15149,-1.537391 0.11367,-1.903755 -0.2093,-2.02769 -0.2168,-0.0832 -1.6905,0.202906 -3.27487,0.635785 -10.72687,2.930764 -13.87062,4.06626 -13.85166,5.003101 0.005,0.250924 1.7367,2.777945 3.84805,5.615601 4.65207,6.252382 4.51544,6.085417 4.98012,6.085417 0.20675,0 2.02762,-2.708672 4.04639,-6.019271 z m 24.8661,5.291667 c 1.10838,-0.694873 1.60923,-1.541918 1.4471,-2.447396 -0.15462,-0.86359 -1.99738,-6.528739 -2.36064,-7.257246 -0.59177,-1.186788 -4.2754,-5.361048 -5.37038,-6.08567 -0.5351,-0.354116 -2.87673,-1.597155 -5.20361,-2.762309 -3.95642,-1.981123 -4.26754,-2.092655 -4.79903,-1.720385 -1.19637,0.837975 -2.14875,4.00127 -2.14875,7.137035 0,1.147674 0.20881,1.642629 1.71655,4.068782 0.94411,1.519187 1.93847,2.984074 2.2097,3.255301 0.75365,0.753655 11.9939,6.531446 12.71475,6.535727 0.34855,0.0021 1.15599,-0.323657 1.79431,-0.723839 z M 161.10876,37.93512 c 1.75931,-1.382448 3.26639,-2.763456 3.34906,-3.068907 0.10278,-0.379728 -0.52841,-1.857579 -1.99577,-4.67289 -2.20999,-4.240136 -2.59322,-4.794193 -3.09873,-4.480047 -0.24923,0.154879 -1.02734,4.217889 -1.55522,8.120802 -0.0787,0.582084 -0.32347,2.172677 -0.54388,3.534654 -0.4185,2.586122 -0.35654,3.309263 0.27124,3.165631 0.20601,-0.04714 1.814,-1.216795 3.5733,-2.599243 z m -60.5671,0.139346 c 2.40109,-0.208434 4.76007,-0.460502 5.24218,-0.560147 0.9341,-0.193069 2.62864,-1.451507 9.05274,-6.722949 2.21676,-1.81901 5.71155,-4.680971 7.76621,-6.359913 4.4402,-3.628263 4.7576,-4.101027 4.55266,-6.781173 -0.12203,-1.595827 -0.84555,-5.602191 -1.68372,-9.3232447 -0.37027,-1.64385 -0.75835,-1.584239 -3.63878,0.558937 -2.57368,1.9149317 -6.56067,4.8648697 -11.36942,8.4121147 -16.302178,12.025553 -17.567078,12.989171 -17.731848,13.508308 -0.25607,0.806796 1.70666,7.049166 2.34389,7.454627 0.3999,0.254452 0.37665,0.255246 5.466088,-0.18656 z M 41.386432,32.974183 c 2.78268,-2.966991 4.17343,-4.896216 4.04882,-5.616482 -0.14001,-0.809305 -2.23931,-9.05336 -2.61227,-10.258518 -0.16136,-0.521435 -0.44033,-0.859896 -0.70875,-0.859896 -0.24345,0 -2.16898,1.102158 -4.27896,2.44924 -2.10997,1.347082 -4.77528,3.043722 -5.92291,3.770312 -3.11645,1.973106 -3.46691,2.304427 -3.12107,2.950634 0.15814,0.295496 0.70153,0.853039 1.20754,1.238986 0.506,0.385946 1.9152,1.565285 3.13155,2.620753 5.69443,4.941228 6.02408,5.206071 6.49472,5.217911 0.18396,0.0046 0.97656,-0.676196 1.76133,-1.51294 z m 129.491448,0.79375 c 0.50058,-0.425408 0.56723,-0.921459 0.82039,-6.106367 0.15155,-3.10384 0.34179,-5.75052 0.42274,-5.881511 0.20129,-0.325684 -0.35191,-1.307435 -0.73671,-1.307435 -0.65776,0 -8.55668,3.546824 -8.99755,4.040137 -0.44785,0.501127 -0.39934,0.642447 1.37106,3.994373 1.00943,1.911176 2.01671,3.82502 2.23841,4.252986 0.22169,0.427969 0.67627,0.929765 1.01019,1.115105 0.92021,0.510762 3.21916,0.447053 3.87147,-0.107288 z"
       id="path75"
       inkscape:connector-curvature="0" />
  </g>
</svg>
